<?xml version="1.0" encoding="iso-8859-1"?>
<!-- Generator: Adobe Illustrator 19.0.0, SVG Export Plug-In . SVG Version: 6.00 Build 0)  -->
<svg version="1.1" id="Capa_1" xmlns="http://www.w3.org/2000/svg" xmlns:xlink="http://www.w3.org/1999/xlink" x="0px" y="0px"
	 viewBox="0 0 512 512" style="enable-background:new 0 0 512 512;" xml:space="preserve">
<path style="fill:#DAE5EF;" d="M37.696,0L94.08,475.728c2.448,20.688,20,36.272,40.832,36.272h242.176
	c20.832,0,38.384-15.584,40.832-36.272L474.304,0H37.696z"/>
<path style="fill:#F3C432;" d="M413.664,176.72l-35.072,295.856h-245.2L95.296,151.2
	C201.424,116.208,307.536,218.416,413.664,176.72z"/>
<path style="fill:#FFD83B;" d="M98.336,176.72l35.072,295.856h245.2L416.704,151.2C310.576,116.208,204.464,218.416,98.336,176.72z"
	/>
<g>
	<path style="fill:#F2CD30;" d="M249.888,351.104l-40.08-40.08c-3.792-3.792-9.92-3.792-13.712,0L156,351.104
		c-3.792,3.792-3.792,9.92,0,13.712l40.08,40.08c3.792,3.792,9.92,3.792,13.712,0l40.08-40.08
		C253.664,361.024,253.664,354.88,249.888,351.104z"/>
	<path style="fill:#F2CD30;" d="M367.648,282.4l-40.08-40.08c-3.792-3.792-9.92-3.792-13.712,0l-40.08,40.08
		c-3.792,3.792-3.776,9.92,0,13.712l40.08,40.08c3.792,3.792,9.92,3.792,13.712,0l40.08-40.08
		C371.44,292.336,371.44,286.192,367.648,282.4z"/>
</g>
<g>
</g>
<g>
</g>
<g>
</g>
<g>
</g>
<g>
</g>
<g>
</g>
<g>
</g>
<g>
</g>
<g>
</g>
<g>
</g>
<g>
</g>
<g>
</g>
<g>
</g>
<g>
</g>
<g>
</g>
</svg>
